<?xml version="1.0" standalone="no"?><!DOCTYPE svg PUBLIC "-//W3C//DTD SVG 1.1//EN" "http://www.w3.org/Graphics/SVG/1.1/DTD/svg11.dtd"><svg t="1619148829415" class="icon" viewBox="0 0 1024 1024" version="1.1" xmlns="http://www.w3.org/2000/svg" p-id="2494" xmlns:xlink="http://www.w3.org/1999/xlink" width="32" height="32"><defs><style type="text/css"></style></defs><path d="M512 0c282.7776 0 512 229.2224 512 512s-229.2224 512-512 512S0 794.7776 0 512 229.2224 0 512 0z m112.9984 350.0544L512.512 462.336 400.128 350.0544a34.9184 34.9184 0 0 0-45.056-3.6864l-4.3008 3.6864a34.9184 34.9184 0 0 0 0 49.3568l112.384 112.2816-112.384 112.2816a34.9184 34.9184 0 1 0 49.3568 49.408l112.384-112.384 112.4864 112.384c12.288 12.288 31.3856 13.4656 45.056 3.6352l4.3008-3.6864a34.9184 34.9184 0 0 0 0-49.3568l-112.4352-112.2816 112.384-112.2816a34.9184 34.9184 0 0 0-49.3056-49.3568z" fill="#02B6D4" p-id="2495" data-spm-anchor-id="a313x.7781069.0.i0" class="selected"></path></svg>